<mxfile host="app.diagrams.net" agent="Mozilla/5.0 (Windows NT 10.0; Win64; x64) AppleWebKit/537.36 (KHTML, like Gecko) Chrome/127.0.0.0 Safari/537.36" version="24.7.6">
  <diagram id="MphVZx0-tv5QaRPudRJv" name="Page-1">
    <mxGraphModel dx="2286" dy="1815" grid="1" gridSize="10" guides="1" tooltips="1" connect="1" arrows="1" fold="1" page="1" pageScale="1" pageWidth="850" pageHeight="1100" math="0" shadow="0">
      <root>
        <mxCell id="0" />
        <mxCell id="1" parent="0" />
        <mxCell id="uNmJEeIxYFzj0MhreAEU-200" value="Data Preprocessing and Feature Engineering" style="whiteSpace=wrap;strokeWidth=2;fontStyle=1;fillColor=#647687;fontColor=#ffffff;strokeColor=#314354;" parent="1" vertex="1">
          <mxGeometry x="522.5" y="50" width="330" height="34" as="geometry" />
        </mxCell>
        <mxCell id="Wk19NMSAOVtPCycfVx70-6" value="" style="edgeStyle=orthogonalEdgeStyle;rounded=0;orthogonalLoop=1;jettySize=auto;html=1;" parent="1" source="uNmJEeIxYFzj0MhreAEU-202" target="uNmJEeIxYFzj0MhreAEU-200" edge="1">
          <mxGeometry relative="1" as="geometry" />
        </mxCell>
        <mxCell id="uNmJEeIxYFzj0MhreAEU-202" value="Read DDoS dataset" style="whiteSpace=wrap;strokeWidth=2;fontStyle=1;fillColor=#647687;fontColor=#ffffff;strokeColor=#314354;" parent="1" vertex="1">
          <mxGeometry x="612.5" y="-10" width="150" height="34" as="geometry" />
        </mxCell>
        <mxCell id="uNmJEeIxYFzj0MhreAEU-203" value="Remove white spaces from column names" style="whiteSpace=wrap;strokeWidth=2;fillColor=#dae8fc;strokeColor=#6c8ebf;" parent="1" vertex="1">
          <mxGeometry x="223" y="120" width="314" height="34" as="geometry" />
        </mxCell>
        <mxCell id="uNmJEeIxYFzj0MhreAEU-204" value="Check and remove null values" style="whiteSpace=wrap;strokeWidth=2;fillColor=#dae8fc;strokeColor=#6c8ebf;" parent="1" vertex="1">
          <mxGeometry x="580" y="120" width="229" height="34" as="geometry" />
        </mxCell>
        <mxCell id="uNmJEeIxYFzj0MhreAEU-205" value="Label Encoded" style="whiteSpace=wrap;strokeWidth=2;fillColor=#dae8fc;strokeColor=#6c8ebf;" parent="1" vertex="1">
          <mxGeometry x="870" y="120" width="119" height="34" as="geometry" />
        </mxCell>
        <mxCell id="uNmJEeIxYFzj0MhreAEU-206" value="Remove less important features" style="whiteSpace=wrap;strokeWidth=2;fillColor=#dae8fc;strokeColor=#6c8ebf;" parent="1" vertex="1">
          <mxGeometry x="1015" y="120" width="243" height="34" as="geometry" />
        </mxCell>
        <mxCell id="uNmJEeIxYFzj0MhreAEU-207" value="Select top 45 important features" style="whiteSpace=wrap;strokeWidth=2;fontStyle=1;fillColor=#647687;fontColor=#ffffff;strokeColor=#314354;" parent="1" vertex="1">
          <mxGeometry x="1002.5" y="180" width="268" height="34" as="geometry" />
        </mxCell>
        <mxCell id="uNmJEeIxYFzj0MhreAEU-208" value="Exploratory Data Analysis" style="whiteSpace=wrap;strokeWidth=2;fontStyle=1;fillColor=#647687;fontColor=#ffffff;strokeColor=#314354;" parent="1" vertex="1">
          <mxGeometry x="620" y="270" width="196" height="34" as="geometry" />
        </mxCell>
        <mxCell id="uNmJEeIxYFzj0MhreAEU-209" value="Create histogram plots for each feature for analysis" style="whiteSpace=wrap;strokeWidth=2;fillColor=#dae8fc;strokeColor=#6c8ebf;" parent="1" vertex="1">
          <mxGeometry x="279" y="340" width="301" height="34" as="geometry" />
        </mxCell>
        <mxCell id="uNmJEeIxYFzj0MhreAEU-210" value="Data Splitting" style="whiteSpace=wrap;strokeWidth=2;fontStyle=1;fillColor=#647687;fontColor=#ffffff;strokeColor=#314354;" parent="1" vertex="1">
          <mxGeometry x="661.5" y="400" width="113" height="34" as="geometry" />
        </mxCell>
        <mxCell id="uNmJEeIxYFzj0MhreAEU-211" value="Training Set (70%)Â " style="whiteSpace=wrap;strokeWidth=2;fontStyle=1;fillColor=#f5f5f5;gradientColor=#b3b3b3;strokeColor=#666666;" parent="1" vertex="1">
          <mxGeometry x="492.5" y="480" width="152.5" height="34" as="geometry" />
        </mxCell>
        <mxCell id="uNmJEeIxYFzj0MhreAEU-212" value="Conventional ML Model Training and Testing" style="whiteSpace=wrap;strokeWidth=2;fontStyle=1;fillColor=#fff2cc;gradientColor=#ffd966;strokeColor=#d6b656;" parent="1" vertex="1">
          <mxGeometry x="310" y="630" width="205" height="34" as="geometry" />
        </mxCell>
        <mxCell id="uNmJEeIxYFzj0MhreAEU-213" value="Random Forest" style="whiteSpace=wrap;strokeWidth=2;fillColor=#bac8d3;strokeColor=#23445d;" parent="1" vertex="1">
          <mxGeometry x="20" y="740" width="123" height="34" as="geometry" />
        </mxCell>
        <mxCell id="uNmJEeIxYFzj0MhreAEU-214" value="Logistic Regression" style="whiteSpace=wrap;strokeWidth=2;fillColor=#e1d5e7;strokeColor=#9673a6;" parent="1" vertex="1">
          <mxGeometry x="160" y="740" width="150" height="34" as="geometry" />
        </mxCell>
        <mxCell id="uNmJEeIxYFzj0MhreAEU-215" value="KNN" style="whiteSpace=wrap;strokeWidth=2;fillColor=#fff2cc;strokeColor=#d6b656;" parent="1" vertex="1">
          <mxGeometry x="340" y="740" width="45" height="34" as="geometry" />
        </mxCell>
        <mxCell id="uNmJEeIxYFzj0MhreAEU-216" value="Support Vector Machine" style="whiteSpace=wrap;strokeWidth=2;fillColor=#dae8fc;strokeColor=#6c8ebf;" parent="1" vertex="1">
          <mxGeometry x="415" y="740" width="185" height="34" as="geometry" />
        </mxCell>
        <mxCell id="uNmJEeIxYFzj0MhreAEU-217" value="Decision Tree" style="whiteSpace=wrap;strokeWidth=2;fillColor=#d5e8d4;strokeColor=#82b366;" parent="1" vertex="1">
          <mxGeometry x="620" y="740" width="110" height="34" as="geometry" />
        </mxCell>
        <mxCell id="uNmJEeIxYFzj0MhreAEU-218" value="Neural Network" style="whiteSpace=wrap;strokeWidth=2;fillColor=#f5f5f5;fontColor=#333333;strokeColor=#666666;" parent="1" vertex="1">
          <mxGeometry x="742" y="740" width="128" height="34" as="geometry" />
        </mxCell>
        <mxCell id="uNmJEeIxYFzj0MhreAEU-219" value="Hybrid Machine Learning Model Training and Testing" style="whiteSpace=wrap;strokeWidth=2;fontStyle=1;fillColor=#fff2cc;gradientColor=#ffd966;strokeColor=#d6b656;" parent="1" vertex="1">
          <mxGeometry x="1002.5" y="610" width="313" height="34" as="geometry" />
        </mxCell>
        <mxCell id="uNmJEeIxYFzj0MhreAEU-220" value="Base Model: LR, RF, SVM" style="whiteSpace=wrap;strokeWidth=2;fillColor=#f8cecc;strokeColor=#b85450;" parent="1" vertex="1">
          <mxGeometry x="949" y="740" width="188" height="34" as="geometry" />
        </mxCell>
        <mxCell id="uNmJEeIxYFzj0MhreAEU-221" value="Stacking" style="whiteSpace=wrap;strokeWidth=2;fillColor=#dae8fc;strokeColor=#6c8ebf;" parent="1" vertex="1">
          <mxGeometry x="884" y="824" width="75" height="34" as="geometry" />
        </mxCell>
        <mxCell id="uNmJEeIxYFzj0MhreAEU-222" value="Boosting" style="whiteSpace=wrap;strokeWidth=2;fillColor=#d5e8d4;strokeColor=#82b366;" parent="1" vertex="1">
          <mxGeometry x="1008" y="824" width="75" height="34" as="geometry" />
        </mxCell>
        <mxCell id="uNmJEeIxYFzj0MhreAEU-223" value="Voting" style="whiteSpace=wrap;strokeWidth=2;fillColor=#f5f5f5;fontColor=#333333;strokeColor=#666666;" parent="1" vertex="1">
          <mxGeometry x="1134" y="824" width="61" height="34" as="geometry" />
        </mxCell>
        <mxCell id="uNmJEeIxYFzj0MhreAEU-225" value="Base Model: Gradient Boosting, XGBoost" style="whiteSpace=wrap;strokeWidth=2;fillColor=#f8cecc;strokeColor=#b85450;" parent="1" vertex="1">
          <mxGeometry x="1232.5" y="738" width="237.5" height="34" as="geometry" />
        </mxCell>
        <mxCell id="uNmJEeIxYFzj0MhreAEU-226" value="Stacked Model (Gradient Boosting + XGBoost)" style="whiteSpace=wrap;strokeWidth=2;fillColor=#e1d5e7;strokeColor=#9673a6;" parent="1" vertex="1">
          <mxGeometry x="1218.5" y="824" width="265.5" height="36" as="geometry" />
        </mxCell>
        <mxCell id="uNmJEeIxYFzj0MhreAEU-229" value="" style="curved=0;startArrow=none;endArrow=block;exitX=0.5;exitY=1;entryX=0.471;entryY=-0.079;rounded=0;exitDx=0;exitDy=0;entryDx=0;entryDy=0;entryPerimeter=0;" parent="1" target="uNmJEeIxYFzj0MhreAEU-202" edge="1">
          <mxGeometry relative="1" as="geometry">
            <Array as="points" />
            <mxPoint x="683" y="-36" as="sourcePoint" />
            <mxPoint x="685" y="-10" as="targetPoint" />
          </mxGeometry>
        </mxCell>
        <mxCell id="uNmJEeIxYFzj0MhreAEU-236" value="" style="curved=0;startArrow=none;endArrow=block;exitX=0;exitY=0.5;rounded=0;exitDx=0;exitDy=0;entryX=0.468;entryY=-0.013;entryDx=0;entryDy=0;entryPerimeter=0;" parent="1" source="uNmJEeIxYFzj0MhreAEU-208" target="uNmJEeIxYFzj0MhreAEU-209" edge="1">
          <mxGeometry relative="1" as="geometry">
            <Array as="points">
              <mxPoint x="420" y="287" />
            </Array>
            <mxPoint x="420" y="330" as="targetPoint" />
          </mxGeometry>
        </mxCell>
        <mxCell id="uNmJEeIxYFzj0MhreAEU-245" value="" style="curved=1;startArrow=none;endArrow=block;exitX=0.24;exitY=0.99;entryX=0.49;entryY=-0.01;rounded=0;" parent="1" source="uNmJEeIxYFzj0MhreAEU-220" target="uNmJEeIxYFzj0MhreAEU-221" edge="1">
          <mxGeometry relative="1" as="geometry">
            <Array as="points">
              <mxPoint x="921" y="799" />
            </Array>
          </mxGeometry>
        </mxCell>
        <mxCell id="uNmJEeIxYFzj0MhreAEU-246" value="" style="curved=1;startArrow=none;endArrow=block;exitX=0.5;exitY=0.99;entryX=0.51;entryY=-0.01;rounded=0;" parent="1" source="uNmJEeIxYFzj0MhreAEU-220" target="uNmJEeIxYFzj0MhreAEU-222" edge="1">
          <mxGeometry relative="1" as="geometry">
            <Array as="points">
              <mxPoint x="1046" y="799" />
            </Array>
          </mxGeometry>
        </mxCell>
        <mxCell id="uNmJEeIxYFzj0MhreAEU-247" value="" style="curved=1;startArrow=none;endArrow=block;exitX=0.76;exitY=0.99;entryX=0.49;entryY=-0.01;rounded=0;" parent="1" source="uNmJEeIxYFzj0MhreAEU-220" target="uNmJEeIxYFzj0MhreAEU-223" edge="1">
          <mxGeometry relative="1" as="geometry">
            <Array as="points">
              <mxPoint x="1164" y="799" />
            </Array>
          </mxGeometry>
        </mxCell>
        <mxCell id="uNmJEeIxYFzj0MhreAEU-249" value="" style="curved=1;startArrow=none;endArrow=block;exitX=0.503;exitY=1.026;rounded=0;entryX=0.503;entryY=-0.035;entryDx=0;entryDy=0;entryPerimeter=0;exitDx=0;exitDy=0;exitPerimeter=0;" parent="1" source="uNmJEeIxYFzj0MhreAEU-225" target="uNmJEeIxYFzj0MhreAEU-226" edge="1">
          <mxGeometry relative="1" as="geometry">
            <Array as="points" />
            <mxPoint x="1350.63" y="822" as="targetPoint" />
            <mxPoint x="1351.88" y="774.0000000000002" as="sourcePoint" />
          </mxGeometry>
        </mxCell>
        <mxCell id="uNmJEeIxYFzj0MhreAEU-252" value="" style="curved=1;startArrow=none;endArrow=block;rounded=0;exitX=0.5;exitY=1;exitDx=0;exitDy=0;entryX=0.5;entryY=0;entryDx=0;entryDy=0;" parent="1" source="uNmJEeIxYFzj0MhreAEU-208" target="uNmJEeIxYFzj0MhreAEU-210" edge="1">
          <mxGeometry relative="1" as="geometry">
            <Array as="points" />
            <mxPoint x="693.5" y="297" as="sourcePoint" />
            <mxPoint x="718" y="390" as="targetPoint" />
          </mxGeometry>
        </mxCell>
        <mxCell id="Wk19NMSAOVtPCycfVx70-1" value="Import necessary libraries" style="whiteSpace=wrap;strokeWidth=2;fontStyle=1;fillColor=#647687;fontColor=#ffffff;strokeColor=#314354;" parent="1" vertex="1">
          <mxGeometry x="586" y="-70" width="201" height="34" as="geometry" />
        </mxCell>
        <mxCell id="Wk19NMSAOVtPCycfVx70-8" value="" style="endArrow=classic;html=1;rounded=0;exitX=0.5;exitY=1;exitDx=0;exitDy=0;" parent="1" source="uNmJEeIxYFzj0MhreAEU-212" edge="1">
          <mxGeometry width="50" height="50" relative="1" as="geometry">
            <mxPoint x="440" y="870" as="sourcePoint" />
            <mxPoint x="413" y="700" as="targetPoint" />
          </mxGeometry>
        </mxCell>
        <mxCell id="Wk19NMSAOVtPCycfVx70-9" value="" style="endArrow=none;html=1;rounded=0;" parent="1" edge="1">
          <mxGeometry width="50" height="50" relative="1" as="geometry">
            <mxPoint x="80" y="700" as="sourcePoint" />
            <mxPoint x="820" y="700" as="targetPoint" />
          </mxGeometry>
        </mxCell>
        <mxCell id="Wk19NMSAOVtPCycfVx70-10" value="" style="endArrow=classic;html=1;rounded=0;" parent="1" edge="1">
          <mxGeometry width="50" height="50" relative="1" as="geometry">
            <mxPoint x="80" y="700" as="sourcePoint" />
            <mxPoint x="80" y="740" as="targetPoint" />
          </mxGeometry>
        </mxCell>
        <mxCell id="Wk19NMSAOVtPCycfVx70-11" value="" style="endArrow=classic;html=1;rounded=0;" parent="1" edge="1">
          <mxGeometry width="50" height="50" relative="1" as="geometry">
            <mxPoint x="234.74" y="700" as="sourcePoint" />
            <mxPoint x="234.74" y="740" as="targetPoint" />
          </mxGeometry>
        </mxCell>
        <mxCell id="Wk19NMSAOVtPCycfVx70-12" value="" style="endArrow=classic;html=1;rounded=0;" parent="1" edge="1">
          <mxGeometry width="50" height="50" relative="1" as="geometry">
            <mxPoint x="362.24" y="700" as="sourcePoint" />
            <mxPoint x="362.24" y="740" as="targetPoint" />
          </mxGeometry>
        </mxCell>
        <mxCell id="Wk19NMSAOVtPCycfVx70-13" value="" style="endArrow=classic;html=1;rounded=0;" parent="1" edge="1">
          <mxGeometry width="50" height="50" relative="1" as="geometry">
            <mxPoint x="515" y="700" as="sourcePoint" />
            <mxPoint x="515" y="740" as="targetPoint" />
          </mxGeometry>
        </mxCell>
        <mxCell id="Wk19NMSAOVtPCycfVx70-14" value="" style="endArrow=classic;html=1;rounded=0;" parent="1" edge="1">
          <mxGeometry width="50" height="50" relative="1" as="geometry">
            <mxPoint x="680" y="700" as="sourcePoint" />
            <mxPoint x="680" y="740" as="targetPoint" />
          </mxGeometry>
        </mxCell>
        <mxCell id="Wk19NMSAOVtPCycfVx70-15" value="" style="endArrow=classic;html=1;rounded=0;entryX=0.61;entryY=-0.02;entryDx=0;entryDy=0;entryPerimeter=0;" parent="1" target="uNmJEeIxYFzj0MhreAEU-218" edge="1">
          <mxGeometry width="50" height="50" relative="1" as="geometry">
            <mxPoint x="819.78" y="700" as="sourcePoint" />
            <mxPoint x="815.9959999999999" y="740.002" as="targetPoint" />
          </mxGeometry>
        </mxCell>
        <mxCell id="Wk19NMSAOVtPCycfVx70-21" value="Explainable AI Techniques" style="whiteSpace=wrap;strokeWidth=2;fontStyle=1;fillColor=#647687;fontColor=#ffffff;strokeColor=#314354;" parent="1" vertex="1">
          <mxGeometry x="1076" y="270" width="199" height="34" as="geometry" />
        </mxCell>
        <mxCell id="Wk19NMSAOVtPCycfVx70-22" value="Apply SHAP to interpret model and understand feature contributions" style="whiteSpace=wrap;strokeWidth=2;fillColor=#dae8fc;strokeColor=#6c8ebf;" parent="1" vertex="1">
          <mxGeometry x="920" y="340" width="509" height="34" as="geometry" />
        </mxCell>
        <mxCell id="Wk19NMSAOVtPCycfVx70-23" value="" style="curved=1;startArrow=none;endArrow=block;exitX=0.5;exitY=1;rounded=0;" parent="1" source="Wk19NMSAOVtPCycfVx70-21" edge="1">
          <mxGeometry relative="1" as="geometry">
            <Array as="points" />
            <mxPoint x="1176" y="340" as="targetPoint" />
          </mxGeometry>
        </mxCell>
        <mxCell id="Wk19NMSAOVtPCycfVx70-24" value="" style="endArrow=classic;html=1;rounded=0;exitX=1;exitY=0.5;exitDx=0;exitDy=0;entryX=0;entryY=0.5;entryDx=0;entryDy=0;" parent="1" source="uNmJEeIxYFzj0MhreAEU-208" target="Wk19NMSAOVtPCycfVx70-21" edge="1">
          <mxGeometry width="50" height="50" relative="1" as="geometry">
            <mxPoint x="1030" y="410" as="sourcePoint" />
            <mxPoint x="1080" y="360" as="targetPoint" />
          </mxGeometry>
        </mxCell>
        <mxCell id="Wk19NMSAOVtPCycfVx70-28" value="" style="endArrow=classic;startArrow=classic;html=1;rounded=0;exitX=0.436;exitY=-0.042;exitDx=0;exitDy=0;exitPerimeter=0;entryX=0.5;entryY=0;entryDx=0;entryDy=0;" parent="1" source="uNmJEeIxYFzj0MhreAEU-203" target="uNmJEeIxYFzj0MhreAEU-206" edge="1">
          <mxGeometry width="50" height="50" relative="1" as="geometry">
            <mxPoint x="680" y="280" as="sourcePoint" />
            <mxPoint x="730" y="230" as="targetPoint" />
            <Array as="points">
              <mxPoint x="360" y="100" />
              <mxPoint x="1137" y="100" />
            </Array>
          </mxGeometry>
        </mxCell>
        <mxCell id="Wk19NMSAOVtPCycfVx70-30" value="" style="endArrow=classic;html=1;rounded=0;exitX=0.5;exitY=1;exitDx=0;exitDy=0;" parent="1" edge="1">
          <mxGeometry width="50" height="50" relative="1" as="geometry">
            <mxPoint x="688.25" y="84" as="sourcePoint" />
            <mxPoint x="688" y="100" as="targetPoint" />
          </mxGeometry>
        </mxCell>
        <mxCell id="Wk19NMSAOVtPCycfVx70-31" value="" style="endArrow=classic;html=1;rounded=0;" parent="1" edge="1">
          <mxGeometry width="50" height="50" relative="1" as="geometry">
            <mxPoint x="700" y="100" as="sourcePoint" />
            <mxPoint x="700" y="120" as="targetPoint" />
          </mxGeometry>
        </mxCell>
        <mxCell id="Wk19NMSAOVtPCycfVx70-33" value="" style="endArrow=classic;html=1;rounded=0;entryX=0.593;entryY=0.002;entryDx=0;entryDy=0;entryPerimeter=0;" parent="1" target="uNmJEeIxYFzj0MhreAEU-205" edge="1">
          <mxGeometry width="50" height="50" relative="1" as="geometry">
            <mxPoint x="940" y="100" as="sourcePoint" />
            <mxPoint x="809" y="170" as="targetPoint" />
          </mxGeometry>
        </mxCell>
        <mxCell id="Wk19NMSAOVtPCycfVx70-34" value="" style="endArrow=classic;html=1;rounded=0;exitX=1;exitY=0.5;exitDx=0;exitDy=0;entryX=0;entryY=0.5;entryDx=0;entryDy=0;" parent="1" source="uNmJEeIxYFzj0MhreAEU-203" target="uNmJEeIxYFzj0MhreAEU-204" edge="1">
          <mxGeometry width="50" height="50" relative="1" as="geometry">
            <mxPoint x="720" y="160" as="sourcePoint" />
            <mxPoint x="580" y="140" as="targetPoint" />
          </mxGeometry>
        </mxCell>
        <mxCell id="Wk19NMSAOVtPCycfVx70-35" value="" style="endArrow=classic;html=1;rounded=0;exitX=1;exitY=0.5;exitDx=0;exitDy=0;entryX=0;entryY=0.5;entryDx=0;entryDy=0;" parent="1" target="uNmJEeIxYFzj0MhreAEU-205" edge="1">
          <mxGeometry width="50" height="50" relative="1" as="geometry">
            <mxPoint x="809.5" y="136.74" as="sourcePoint" />
            <mxPoint x="852.5" y="136.74" as="targetPoint" />
          </mxGeometry>
        </mxCell>
        <mxCell id="Wk19NMSAOVtPCycfVx70-36" value="" style="endArrow=classic;html=1;rounded=0;entryX=0;entryY=0.5;entryDx=0;entryDy=0;exitX=1;exitY=0.5;exitDx=0;exitDy=0;" parent="1" source="uNmJEeIxYFzj0MhreAEU-205" target="uNmJEeIxYFzj0MhreAEU-206" edge="1">
          <mxGeometry width="50" height="50" relative="1" as="geometry">
            <mxPoint x="990" y="140" as="sourcePoint" />
            <mxPoint x="600" y="157" as="targetPoint" />
          </mxGeometry>
        </mxCell>
        <mxCell id="Wk19NMSAOVtPCycfVx70-37" value="" style="endArrow=classic;html=1;rounded=0;exitX=0.5;exitY=1;exitDx=0;exitDy=0;" parent="1" edge="1">
          <mxGeometry width="50" height="50" relative="1" as="geometry">
            <mxPoint x="1142.5" y="154" as="sourcePoint" />
            <mxPoint x="1143" y="180" as="targetPoint" />
          </mxGeometry>
        </mxCell>
        <mxCell id="Wk19NMSAOVtPCycfVx70-38" value="" style="endArrow=classic;html=1;rounded=0;entryX=0.5;entryY=0;entryDx=0;entryDy=0;exitX=0.584;exitY=0.976;exitDx=0;exitDy=0;exitPerimeter=0;" parent="1" source="uNmJEeIxYFzj0MhreAEU-207" target="uNmJEeIxYFzj0MhreAEU-208" edge="1">
          <mxGeometry width="50" height="50" relative="1" as="geometry">
            <mxPoint x="860" y="230" as="sourcePoint" />
            <mxPoint x="770" y="330" as="targetPoint" />
            <Array as="points">
              <mxPoint x="1159" y="240" />
              <mxPoint x="718" y="240" />
            </Array>
          </mxGeometry>
        </mxCell>
        <mxCell id="Wk19NMSAOVtPCycfVx70-41" value="" style="ellipse;whiteSpace=wrap;html=1;" parent="1" vertex="1">
          <mxGeometry x="175" y="-180" width="5" as="geometry" />
        </mxCell>
        <mxCell id="Wk19NMSAOVtPCycfVx70-42" value="" style="ellipse;whiteSpace=wrap;html=1;" parent="1" vertex="1">
          <mxGeometry x="1320" y="984" width="330" as="geometry" />
        </mxCell>
        <mxCell id="qNBYBg1JhioPcNBpS_8X-1" value="Test Set (30%)" style="whiteSpace=wrap;strokeWidth=2;fontStyle=1;fillColor=#f5f5f5;gradientColor=#b3b3b3;strokeColor=#666666;" parent="1" vertex="1">
          <mxGeometry x="800" y="480" width="135.5" height="34" as="geometry" />
        </mxCell>
        <mxCell id="qNBYBg1JhioPcNBpS_8X-6" value="" style="endArrow=none;html=1;rounded=0;entryX=0.553;entryY=-0.057;entryDx=0;entryDy=0;entryPerimeter=0;" parent="1" target="qNBYBg1JhioPcNBpS_8X-1" edge="1">
          <mxGeometry width="50" height="50" relative="1" as="geometry">
            <mxPoint x="570" y="480" as="sourcePoint" />
            <mxPoint x="870" y="460" as="targetPoint" />
            <Array as="points">
              <mxPoint x="570" y="460" />
              <mxPoint x="875" y="460" />
            </Array>
          </mxGeometry>
        </mxCell>
        <mxCell id="qNBYBg1JhioPcNBpS_8X-9" value="" style="endArrow=none;html=1;rounded=0;entryX=0.556;entryY=1.019;entryDx=0;entryDy=0;entryPerimeter=0;exitX=0.5;exitY=1;exitDx=0;exitDy=0;" parent="1" source="uNmJEeIxYFzj0MhreAEU-211" target="qNBYBg1JhioPcNBpS_8X-1" edge="1">
          <mxGeometry width="50" height="50" relative="1" as="geometry">
            <mxPoint x="569" y="520" as="sourcePoint" />
            <mxPoint x="800" y="480" as="targetPoint" />
            <Array as="points">
              <mxPoint x="569" y="530" />
              <mxPoint x="875" y="530" />
            </Array>
          </mxGeometry>
        </mxCell>
        <mxCell id="qNBYBg1JhioPcNBpS_8X-10" value="" style="endArrow=classic;startArrow=classic;html=1;rounded=0;exitX=0.439;exitY=0;exitDx=0;exitDy=0;exitPerimeter=0;entryX=0.535;entryY=0;entryDx=0;entryDy=0;entryPerimeter=0;" parent="1" source="uNmJEeIxYFzj0MhreAEU-212" target="uNmJEeIxYFzj0MhreAEU-219" edge="1">
          <mxGeometry width="50" height="50" relative="1" as="geometry">
            <mxPoint x="400" y="590" as="sourcePoint" />
            <mxPoint x="1383.511" y="627.7560000000003" as="targetPoint" />
            <Array as="points">
              <mxPoint x="400" y="580" />
              <mxPoint x="1170" y="580" />
            </Array>
          </mxGeometry>
        </mxCell>
        <mxCell id="qNBYBg1JhioPcNBpS_8X-11" value="" style="ellipse;whiteSpace=wrap;html=1;" parent="1" vertex="1">
          <mxGeometry x="-40" y="1000" height="10" as="geometry" />
        </mxCell>
        <mxCell id="qNBYBg1JhioPcNBpS_8X-13" value="" style="ellipse;whiteSpace=wrap;html=1;direction=south;" parent="1" vertex="1">
          <mxGeometry x="1500" y="1010" width="100" as="geometry" />
        </mxCell>
        <mxCell id="qNBYBg1JhioPcNBpS_8X-16" value="" style="endArrow=none;html=1;rounded=0;" parent="1" edge="1">
          <mxGeometry width="50" height="50" relative="1" as="geometry">
            <mxPoint x="720" y="580" as="sourcePoint" />
            <mxPoint x="720" y="530" as="targetPoint" />
          </mxGeometry>
        </mxCell>
        <mxCell id="qNBYBg1JhioPcNBpS_8X-17" value="" style="endArrow=none;html=1;rounded=0;entryX=0.5;entryY=1;entryDx=0;entryDy=0;" parent="1" target="uNmJEeIxYFzj0MhreAEU-210" edge="1">
          <mxGeometry width="50" height="50" relative="1" as="geometry">
            <mxPoint x="718" y="460" as="sourcePoint" />
            <mxPoint x="750" y="470" as="targetPoint" />
          </mxGeometry>
        </mxCell>
        <mxCell id="tF1cwoevVOCnaeyNp_Ib-1" value="" style="endArrow=classic;startArrow=classic;html=1;rounded=0;" parent="1" edge="1">
          <mxGeometry width="50" height="50" relative="1" as="geometry">
            <mxPoint x="1040" y="730" as="sourcePoint" />
            <mxPoint x="1360" y="735" as="targetPoint" />
            <Array as="points">
              <mxPoint x="1040" y="700" />
              <mxPoint x="1360" y="700" />
            </Array>
          </mxGeometry>
        </mxCell>
        <mxCell id="tF1cwoevVOCnaeyNp_Ib-2" value="" style="endArrow=none;html=1;rounded=0;entryX=0.583;entryY=0.994;entryDx=0;entryDy=0;entryPerimeter=0;" parent="1" target="uNmJEeIxYFzj0MhreAEU-219" edge="1">
          <mxGeometry width="50" height="50" relative="1" as="geometry">
            <mxPoint x="1186" y="700" as="sourcePoint" />
            <mxPoint x="1250" y="640" as="targetPoint" />
          </mxGeometry>
        </mxCell>
        <mxCell id="tF1cwoevVOCnaeyNp_Ib-4" value="&lt;b&gt;Evaluation&lt;/b&gt;" style="rounded=1;whiteSpace=wrap;html=1;fillColor=#ffff88;strokeColor=#36393d;" parent="1" vertex="1">
          <mxGeometry x="634.5" y="954" width="185.5" height="36" as="geometry" />
        </mxCell>
        <mxCell id="FtDA-mjxmxts1vf1L52v-2" value="" style="endArrow=none;html=1;rounded=0;entryX=0.534;entryY=1.03;entryDx=0;entryDy=0;entryPerimeter=0;" edge="1" parent="1" target="uNmJEeIxYFzj0MhreAEU-226">
          <mxGeometry width="50" height="50" relative="1" as="geometry">
            <mxPoint x="480" y="842" as="sourcePoint" />
            <mxPoint x="1362.2221374511719" y="910" as="targetPoint" />
            <Array as="points">
              <mxPoint x="480" y="910" />
              <mxPoint x="1360" y="910" />
            </Array>
          </mxGeometry>
        </mxCell>
        <mxCell id="FtDA-mjxmxts1vf1L52v-7" value="" style="endArrow=none;html=1;rounded=0;" edge="1" parent="1">
          <mxGeometry width="50" height="50" relative="1" as="geometry">
            <mxPoint x="920" y="860" as="sourcePoint" />
            <mxPoint x="1160" y="860" as="targetPoint" />
            <Array as="points">
              <mxPoint x="920" y="880" />
              <mxPoint x="1160" y="880" />
            </Array>
          </mxGeometry>
        </mxCell>
        <mxCell id="FtDA-mjxmxts1vf1L52v-11" value="" style="endArrow=none;html=1;rounded=0;" edge="1" parent="1">
          <mxGeometry width="50" height="50" relative="1" as="geometry">
            <mxPoint x="1050" y="908" as="sourcePoint" />
            <mxPoint x="1050" y="858" as="targetPoint" />
          </mxGeometry>
        </mxCell>
        <mxCell id="FtDA-mjxmxts1vf1L52v-13" value="" style="endArrow=none;html=1;rounded=0;exitX=0.5;exitY=1;exitDx=0;exitDy=0;entryX=0.5;entryY=1;entryDx=0;entryDy=0;" edge="1" parent="1" source="uNmJEeIxYFzj0MhreAEU-213" target="uNmJEeIxYFzj0MhreAEU-218">
          <mxGeometry width="50" height="50" relative="1" as="geometry">
            <mxPoint x="380" y="800" as="sourcePoint" />
            <mxPoint x="430" y="750" as="targetPoint" />
            <Array as="points">
              <mxPoint x="82" y="840" />
              <mxPoint x="806" y="840" />
            </Array>
          </mxGeometry>
        </mxCell>
        <mxCell id="FtDA-mjxmxts1vf1L52v-14" value="" style="endArrow=none;html=1;rounded=0;entryX=0.563;entryY=0.947;entryDx=0;entryDy=0;entryPerimeter=0;" edge="1" parent="1" target="uNmJEeIxYFzj0MhreAEU-216">
          <mxGeometry width="50" height="50" relative="1" as="geometry">
            <mxPoint x="520" y="840" as="sourcePoint" />
            <mxPoint x="550" y="780" as="targetPoint" />
          </mxGeometry>
        </mxCell>
        <mxCell id="FtDA-mjxmxts1vf1L52v-15" value="" style="endArrow=none;html=1;rounded=0;entryX=0.5;entryY=1;entryDx=0;entryDy=0;" edge="1" parent="1" target="uNmJEeIxYFzj0MhreAEU-215">
          <mxGeometry width="50" height="50" relative="1" as="geometry">
            <mxPoint x="363" y="840" as="sourcePoint" />
            <mxPoint x="470" y="820" as="targetPoint" />
          </mxGeometry>
        </mxCell>
        <mxCell id="FtDA-mjxmxts1vf1L52v-16" value="" style="endArrow=none;html=1;rounded=0;entryX=0.563;entryY=1.023;entryDx=0;entryDy=0;entryPerimeter=0;" edge="1" parent="1" target="uNmJEeIxYFzj0MhreAEU-214">
          <mxGeometry width="50" height="50" relative="1" as="geometry">
            <mxPoint x="244" y="840" as="sourcePoint" />
            <mxPoint x="470" y="820" as="targetPoint" />
          </mxGeometry>
        </mxCell>
        <mxCell id="FtDA-mjxmxts1vf1L52v-17" value="" style="endArrow=none;html=1;rounded=0;entryX=0.539;entryY=1.062;entryDx=0;entryDy=0;entryPerimeter=0;" edge="1" parent="1" target="uNmJEeIxYFzj0MhreAEU-217">
          <mxGeometry width="50" height="50" relative="1" as="geometry">
            <mxPoint x="680" y="840" as="sourcePoint" />
            <mxPoint x="660" y="800" as="targetPoint" />
          </mxGeometry>
        </mxCell>
        <mxCell id="FtDA-mjxmxts1vf1L52v-18" value="" style="endArrow=classic;html=1;rounded=0;" edge="1" parent="1">
          <mxGeometry width="50" height="50" relative="1" as="geometry">
            <mxPoint x="720" y="910" as="sourcePoint" />
            <mxPoint x="720" y="950" as="targetPoint" />
          </mxGeometry>
        </mxCell>
      </root>
    </mxGraphModel>
  </diagram>
</mxfile>
